<svg height="512pt" viewBox="0 0 512 512" width="512pt" xmlns="http://www.w3.org/2000/svg"><path d="m314.808594 260.175781c-5.859375-5.855469-15.355469-5.855469-21.214844 0l-33.417969 33.417969c-5.859375 5.859375-5.859375 15.355469 0 21.214844s15.355469 5.855468 21.214844 0l33.417969-33.417969c5.855468-5.859375 5.855468-15.359375 0-21.214844zm0 0"/><path d="m274.640625 221.296875c-5.855469-5.859375-15.355469-5.859375-21.210937 0l-32.132813 32.132813c-5.859375 5.855468-5.859375 15.351562 0 21.210937s15.355469 5.855469 21.210937 0l32.132813-32.132813c5.859375-5.859374 5.859375-15.355468 0-21.210937zm0 0"/><path d="m333.761719 300.34375-33.417969 33.417969c-5.859375 5.855469-5.859375 15.355469 0 21.210937 5.859375 5.863282 15.355469 5.859375 21.210938 0l33.417968-33.417968c5.859375-5.859376 5.859375-15.355469 0-21.210938-5.855468-5.859375-15.355468-5.859375-21.210937 0zm0 0"/><path d="m422.128906 372.640625-49.484375 49.488281c-5.859375 5.855469-5.859375 15.351563 0 21.210938s15.355469 5.855468 21.210938 0l49.484375-49.484375c5.859375-5.859375 5.859375-15.355469 0-21.214844-5.859375-5.855469-15.355469-5.855469-21.210938 0zm0 0"/><path d="m414.523438 214.226562-107.628907-33.988281c-50.039062-15.800781-97.234375-40.292969-139.0625-71.921875l18.441407-18.441406c5.859374-5.855469 5.859374-15.355469 0-21.214844-5.855469-5.855468-15.355469-5.855468-21.210938 0l-20.679688 20.683594c-3.902343-3.375-7.742187-6.816406-11.523437-10.320312l21.28125-21.28125c5.859375-5.855469 5.859375-15.351563 0-21.210938-5.855469-5.859375-15.355469-5.859375-21.210937 0l-21.53125 21.527344-1.0625-1.066406-.050782-.019532c.019532-.601562.046875-1.199218.046875-1.804687 0-30.421875-24.746093-55.167969-55.164062-55.167969-30.421875 0-55.167969 24.746094-55.167969 55.167969 0 30.417969 24.746094 55.164062 55.167969 55.164062.597656 0 1.191406-.023437 1.785156-.042969l.035156.046876 1.066407 1.066406-21.527344 21.527344c-5.855469 5.855468-5.855469 15.355468 0 21.210937 5.863281 5.863281 15.359375 5.859375 21.214844 0l21.277343-21.277344c3.503907 3.78125 6.945313 7.621094 10.320313 11.523438l-20.679688 20.675781c-5.855468 5.855469-5.855468 15.355469 0 21.210938 5.859375 5.863281 15.355469 5.859374 21.214844 0l18.4375-18.4375c31.632812 41.820312 56.121094 89.019531 71.921875 139.0625l33.988281 107.632812c12.144532 38.445312 54.21875 97.46875 133.003906 97.46875 90.855469 0 164.773438-73.917969 164.773438-164.777344 0-78.058594-58.074219-120.550781-97.476562-132.996094zm-359.355469-184.226562c13.875 0 25.164062 11.289062 25.164062 25.167969 0 13.875-11.289062 25.164062-25.164062 25.164062-13.878907 0-25.167969-11.289062-25.167969-25.164062 0-13.878907 11.289062-25.167969 25.167969-25.167969zm292.050781 452c-47.984375 0-89.933594-30.746094-104.386719-76.503906l-33.988281-107.632813c-23.558594-74.605469-65.238281-143.289062-120.535156-198.628906 4.128906-3.113281 7.808594-6.792969 10.921875-10.921875 55.355469 55.296875 124.035156 96.976562 198.628906 120.53125l107.632813 33.992188c30.175781 9.527343 76.507812 42.550781 76.507812 104.390624 0 74.3125-60.460938 134.773438-134.78125 134.773438zm0 0"/></svg>